<svg xmlns="http://www.w3.org/2000/svg" viewBox="0 0 1080 1080"><defs><style>.cls-1{fill:#fff;}.cls-2{fill:#ef2e27;}.cls-3{fill:#00984b;}.cls-4{fill:#e6e33e;}</style></defs><g id="Camada_2" data-name="Camada 2"><path d="M529.15,942.08c-9.39.49-21-1.46-32.29.94-29.61,6.31-59.57,5.31-89.42,4.47-12.27-.34-24.39-4.42-36.52-7.13-11.94-2.67-23.58-6.67-36-7.54-15.85-1.11-30,5.11-44.46,9.63a80.7,80.7,0,0,1-16,3C243,948.82,224,932.28,210.33,906.34c-7-13.33-7.34-26.56-1-40.14,7.29-15.71,16.31-30.43,25.68-44.94a27.4,27.4,0,0,0,4.74-15.94c-.19-9.31.28-18.65-.15-28-.35-7.59,1.89-14.78,2.52-22.21.3-3.64,3.92-6,5.73-9.17,6.85-11.87,16.35-20,29.83-24a54.45,54.45,0,0,0,21.64-13,19,19,0,0,0,6.38-14.59c0-1.83,0-3.66,0-5.49.12-8.36,3.15-15,10.46-19.71,12.25-8,21.39-18.75,28.1-31.73,2.1-4.05,2.19-8.62,4.43-12.63,3.12-5.57,7.25-10.1,12.79-12.92,15.28-7.77,20.54-20.8,20.37-37-.07-6.31-.26-12.62,1.87-18.75,2.41-6.88,6.41-9.93,13.62-10.08,3.66-.07,7.34.08,11-.31,7.33-.79,9.83-4.6,7.71-11.6a390.16,390.16,0,0,0-23.95-61.17,262.9,262.9,0,0,1-26.65-90.19c-3.9-36.21-1.15-71.8,9.82-106.49,18.86-59.68,54.19-107.26,105.25-143.74C519.34,104.88,562.67,89,609,80.13c31.63-6,63.52-5.89,95.29-.94,24.23,3.78,47.42,11.27,69.8,21.35,3.15,1.42,2.7,3,1.64,5.34-4.35,9.55-10.28,18.2-15.55,27.22-.92,1.58-2.29,3.08-2.64,4.78-1,5-3.65,4.87-7.56,3.14-5.47-2.4-11.12-4.37-16.71-6.49-4.47-1.7-8.13-.59-10.87,3.36-.76,1.09-1.44,2.23-2.15,3.35-6.24,9.88-6.19,10.21,4.57,13.34,4.65,1.36,9,3.45,13.46,5.14,2.45.92,2.14,1.7,1,3.51-5.75,9.22-5.56,8.91,4.55,13.42,44.49,19.81,71.3,52.89,76.55,102.25a316.53,316.53,0,0,1,1.85,37.8c0,2.66.93,4,3.06,5.54,15.83,11.57,32.62,22.28,44.93,37.73,6.87,8.63,13.37,15.51,25.25,15,2.87-.13,5.59,1.89,8.11,3.55,10.46,6.89,10.52,18.47-.11,25-9.91,6.05-21.1,8.62-32.3,11-7.78,1.62-15.64,2.87-23.48,4.21-6,1-11,7.33-9.26,18.22,1.67,10.26,6.61,19,11.36,27.91,5.09,9.52,11.36,18.34,17.45,27.25.37.55.73,1.11,1.07,1.68,7.43,12.63,4.82,19.91-8.91,24.85-3.6,1.29-7.22,2.51-10.79,3.86-4,1.51-5.56,4.22-4.65,8.62.78,3.81,2.47,7.19,4,10.67,2.79,6.33,2.18,9.33-3.5,13.13-2.8,1.88-3.27,3.52-1.08,5.9,4,4.32,3.23,8.13-.79,12-7.33,7.12-8.51,15.79-5.87,25.29.13.48.23,1,.33,1.45,4,18.12-.87,25.58-19.13,28.39-15.35,2.36-30.66,2.62-44.31-6.4a50,50,0,0,0-28-8.39,20.37,20.37,0,0,0-14.43,5.68,323.51,323.51,0,0,0-30.44,30.85c-5.08,6-7.85,13.44-11.6,20.26a208.39,208.39,0,0,0-11.89,25.2c-1.33,3.43-1.44,4.9,3.3,5.55,15.59,2.15,29.55,9,42.47,17.6a40.32,40.32,0,0,0,25.17,7.17c33.75-1.28,53,17.27,62.9,43.74A136,136,0,0,1,819.36,822c-.29,8.14-6.25,12.72-12.9,15.65-9.76,4.31-19.92,3.47-29.7-.19a16.1,16.1,0,0,0-13,.39,315.54,315.54,0,0,1-59.48,19.72c-7,1.52-14,2.66-21.12,3.57-10,1.28-19,5.66-28.49,8.37-21.11,6-42.67,5.66-64,.11-4-1-5.15-.53-5.15,3.85,0,14.29.51,28.57-1.09,42.87-1.73,15.38-14.15,26.5-28.31,25.8C547.88,941.75,539.54,942.08,529.15,942.08Z"/><path class="cls-1" d="M535.63,436.87c-.79,3.35,2.32,5.84,2,9-.14,1.46.17,3.64-2.21,2.33-7.15-3.91-13.19-.32-19.39,2.45-1.82.82-3.54,1.87-5.4,2.55-2.46.9-5.23,2.32-7.39-.23s-2-6-1-9,3.27-4.39,6.49-4.46a14.43,14.43,0,0,1,6.28,1.38c3.28,1.45,4.42,1.18,3.81-2.85-1.35-8.89-4.89-12.73-14-13.75-2.45-.27-2.85-1.38-3.22-3.43a17.72,17.72,0,0,0-17.44-14.81c-1.43,0-3.14-.43-4,1.23s.65,2.36,1.29,3.44c3,5.1,3.58,10.6,2.67,16.37-1.36,8.55-4.61,16.67-5.64,25.3-.51,4.31-.84,8.61.09,12.9,1.89,8.63,8.53,14.35,17.32,14.38,5.81,0,11.61-.69,17.42-.9a7,7,0,0,1,7.15,6.59,3,3,0,0,1-1.61,3.23c-9.45,5.56-18.75,11.36-29.14,15.15-2.68,1-4.14,1.19-5.07-2.06C473.18,461.74,457.73,423,449,382.23c-4.81-22.43-6.66-45.1-1.62-67.81,9.43-42.42,32.63-74.73,70.76-96.06C542,205,567.76,197.75,594.44,193.09c1.5-.26,3-.75,3.82,1.15,1.39,3.13,4.09,6.3,1.52,9.73-2.9,3.89-3.35,8.17-3.48,12.71-.16,5.74,2.14,10.21,6.26,14.08,5.61,5.28,6,8.54-1.93,11.1-4.82,1.56-8.41,5.35-11.61,9.19-1.72,2.06-2.73,2.16-4.71.39-17.9-15.94-33.42-12.33-47.44,4.07-10.34,12.1-22.46,16.36-37.77,12.39-2.26-.58-5.54-2.21-7-.16-1.36,1.9.83,4.71,2,6.83,8.7,15.93,21.18,26.32,40.19,26.73,7.69.16,14.24-2.8,20-7.73s11.64-9.91,17.52-14.8c1.53-1.27,3.45-2.7,5.39-1.79,2.25,1,2.1,3.64,1.95,5.76-.6,8.51-6,13.43-13.17,16.7-9,4.09-11.64,8.56-10.82,18.61a4.79,4.79,0,0,0,2.59,3.88c4.42,3,8.67,6.22,13.28,8.84,8,4.54,8.6,12.52,10.14,20.15.34,1.66-.59,2.09-2,1.82-1.64-.31-3.25-.72-4.88-1.05-12.67-2.51-21,8.87-21.44,17.65A32.53,32.53,0,0,0,560.33,392c1.95,2.44,3.29,2.62,4.19-.69a28.35,28.35,0,0,1,3.93-8.57c3.74-5.53,9.07-5.81,13.17-.67,3.81,4.76,5.08,10.51,5.9,16.22a67,67,0,0,0,8.08,23.94c1.92,3.37,1.44,5.25-1.69,7.75-11.69,9.33-23.1,19-34.55,28.64-3.15,2.65-4.36,2.45-4.87-2C553.23,445.84,546.62,439.1,535.63,436.87Z"/><path class="cls-1" d="M606.38,504.87a103.79,103.79,0,0,0-7.1,42.9c.64,17.46.63,35,1.07,52.42.09,3.52-.24,5.12-4.54,4.38a437.17,437.17,0,0,0-88-6c-2.32.07-4.71.47-4.74-3.26-.19-21.63-5.47-42.51-9.79-63.51-1-4.78-.13-6.51,4.65-8.5,24.69-10.26,47.32-24.13,68.36-40.65,6.83-5.36,12.56-11.89,19.43-17.15,1.69-1.3,4.19-4.58,4.68,2.39,1.87-8.69,5-15.23,8.36-21.69,9-17.26,29.79-15.95,40.68-8.82,5.37,3.51,9.81,8,12.49,13.92.76,1.71,2.88,4.09.76,5.27-2.5,1.41-2.94-1.88-3.78-3.44-7.1-13.18-20.06-19.1-34.44-15.72a11.75,11.75,0,0,0-6.82,3.84c-10.59,13.28-16,32.8-5.68,50,10.17,16.92,23.46,30.84,37.09,45,1.8-3.68,3.28-7.37,5.3-10.74,4.39-7.28,10.21-7.2,14.47.16,4.92,8.51,6.79,18,8.25,27.57.8,5.25,1.14,10.57,1.74,16.29.26-1.73.47-3.1.78-5.1,8.26,6.91,16.38,13.41,24.15,20.29a101.15,101.15,0,0,0,26.86,17,18.9,18.9,0,0,1,3.89,2.15,2.69,2.69,0,0,1,.73,3.58,2.55,2.55,0,0,1-2.93,1.41,28.18,28.18,0,0,1-4.23-1.37c-14.32-5.38-25.62-15.23-37-25-3.65-3.13-7.31-6.24-10.93-9.32-1.79.76-.86,2.09-.85,3.08,0,17.52-.94,34.91-5.81,51.87-1.44,5-3.23,9.82-6.68,13.82s-7.4,4-10.83-.22c-3.74-4.61-5.7-10.12-7.12-15.79-6.47-25.93-6.35-52.06-2-78.25.42-2.56.19-4.22-1.69-6-4.25-4.12-7.9-8.88-13.33-12.43-3,8.59-3.75,17.15-4.23,25.73-.64,11.34,1,22.57,1.95,33.84.83,10.24,2.23,20.45,1.18,30.81-.42,4.09-2.09,4.48-5.4,4.1-15.7-1.79-31.39-3.62-47.12-5.13-25.24-2.42-50.56-1-75.85-1.18-4,0-5.56-1.05-5.81-5-.78-12.94-1.68-25.87-3.83-38.68-5.3-31.62-15.19-62-25.22-92.31-10.49-31.73-21.68-63.26-28-96.2-5.35-27.88-7.08-55.85.56-83.58,11.59-42,36.9-73.38,74.59-95.16,20.31-11.73,42.53-17.88,64.83-24,6.73-1.85,13.5-3.64,20.5-4.13,2.26-.16,4.91-.44,5.36,2.93.41,3.07-.35,4.53-4,5.14-25.26,4.2-49.42,11.78-72.21,23.69-42.56,22.23-68.35,57.62-78.82,103.69-5.81,25.61-2.38,51.73,3.74,77.14,7.84,32.54,18.69,64.19,29.05,96,2.37,7.28,4.73,14.59,6.37,22,.93,4.25,2.9,4.52,6.25,3.64A112.46,112.46,0,0,0,517,498.34C546,480,572.55,458.4,597.71,435.08a24.49,24.49,0,0,0,1.78-1.75c1.46-1.66,3.5-2.86,5.16-1.26s-.4,3.21-1.39,4.66c-13.71,20-33.5,33.38-52.09,48.07-17.15,13.56-35.31,25.49-56.07,32.95a71.74,71.74,0,0,1-8.57,2.62c-2.67.58-2.9,1.64-2.17,4.17,7.31,25.51,12.33,51.41,12.05,78.08,0,3.16,1,4,4,3.89,9.31-.19,18.7-1.28,27.88-.94,16.23.61,32.62-.05,48.73,3.12,8.48,1.66,17.06,2.8,25.58,4.26,3.35.57,4.48-.45,4.87-4.06,1.44-13.53,0-26.95-1.24-40.35-1.62-17.89-.87-35.59,3.53-53C610.9,511.06,610.05,507.84,606.38,504.87Z"/><path class="cls-1" d="M654.59,82.92c43.22.19,77,6.54,109.18,20.57,2.84,1.23,2.82,2.54,2,4.92-2.27,6.71-6.67,12.25-9.88,18.43-1.37,2.63-2.33,6.7-4.38,7.38s-5.37-1.89-8.14-3c-39.3-15.65-80-20.18-122-16C572,120.13,527.25,136.83,487.89,167c-48.69,37.28-77,87-88.06,147.11-6.61,35.94-2.14,70.92,6.9,105.63,7.78,29.86,19.85,58.25,31.19,86.83,17.85,45,25.63,91.41,22.29,139.68a45.67,45.67,0,0,1-2.51,12.67c-.86,2.34-1.67,3.35-4.23,1.93q-8.5-4.71-17.23-9c-2.78-1.38-2.54-3.6-2.26-5.93,2.9-24.65,1-49.19-2.14-73.63C428.48,546.51,420.44,522,411,498c-6.39-16.27-14.57-31.73-21.37-47.8-9.68-22.87-14.36-46.94-16.82-71.57a255.24,255.24,0,0,1,16.28-120c21.64-55.54,57.35-99,108.27-130.22S604.07,85.11,654.59,82.92Z"/><path class="cls-1" d="M712,164.62c-3.49,2.37-6.15,4.34-7.1,7.36-1.1,3.49-3.49,4.21-6.53,4.93a40,40,0,0,0-24.9,17c-1.82,2.72-3.15,3.4-4.83.1-.16-.3-.29-.61-.47-.89-6.25-9.66-6.25-9.83,2.6-17.58a60.38,60.38,0,0,1,35.63-15.1c7.42-.63,14,2.21,21,3.59,2.19.44,1.68,1.89.71,2.9-7.75,8-5,15.19.59,23.33a88.18,88.18,0,0,1,12.82,30.17,21.08,21.08,0,0,1,.28,9.41c-.75,3.38-3.1,4.92-6.51,5s-4.88-1.76-5.29-4.76c-.68-4.85-3.45-8-7.48-10.57-4.33-2.77-8.26-6.16-12.45-9.15-2.88-2.06-4.26-1.48-4.56,2.38C704.64,224,707,233.72,715.16,242c6.87,7,13.42,14.54,13.05,25.43-.05,1.76,1.1,2.08,2.54,2.4,2.3.51,4.55,1.35,6.32-1.09,2.34-3.23,4.61-6.51,7.09-9.64,5.29-6.69,10.41-7.52,17.09-2.16A118.15,118.15,0,0,1,783,280.18a15.87,15.87,0,0,1,1.82,3.55c.84,2.16,2,4.59-.54,6.29s-5.51,1.33-8.24.72c-1.59-.35-1-2.32-.82-3.51.65-6-1.44-10-7.22-12.41-3.79-1.59-7.15-4.2-10.68-6.4-1.75-1.09-2.81-.87-4,1-4.15,6.62-8.47,13.13-12.82,19.62-1.41,2.12-1.33,3.65.53,5.59,10.74,11.15,21.28,22.49,32,33.64a61.68,61.68,0,0,0,14,10.33,41.08,41.08,0,0,1,4.25,2.62c1.66,1.26,4.34,2.35,3.76,4.72-.5,2-3.23.66-4.85,1.32-2.24.91-3.68.39-4.57-2.11-1.27-3.57-4.18-5.47-7.73-6.47-9.9-2.77-17.45-8.7-24.71-16-9.42-9.46-21.69-15.24-33.42-21.51-1.22-.65-2.26-.58-3,.64-2.43,4-6.6,4.94-10.64,5.76-9.12,1.84-18.46,2.47-27.44,5.05-1.7.48-2.57.12-2.47-1.77,0-.49,0-1,0-1.49,1-8.53.26-16.57-5.84-23.41-7.76-8.72-16.94-15-28.59-17-22.66-3.82-41.94,6.11-52.92,26.93-4.6,8.73-8.43,17.75-9.53,27.66-.38,3.39-1.69,3-3.79,1.56-2.44-1.73-5-3.3-7.3-5.2-1.88-1.56-5.56-2.05-4.85-5.44.77-3.7,2.14-7,6.45-8.71a26.83,26.83,0,0,0,17-20.65,17.71,17.71,0,0,0,.21-5.94c-1.55-10.31-8.73-13.66-17.7-8.29-5.89,3.54-10.61,8.53-15.78,13-13.54,11.59-25.44,12.75-39.56,3.65a32.79,32.79,0,0,1-5.34-4.44c-1.26-1.27-2.85-2.87-2-4.76.68-1.5,2.7-.89,4.12-.93a37.39,37.39,0,0,0,29-14.23c1.68-2.06,3.57-3.95,5.44-5.85C556.72,245.73,572,246.43,582.2,259c5.65,6.91,5.59,6.86,11.19-.36,4-5.14,8.1-9.81,15.28-11.1,5.66-1,6.25-6.65,7.4-11.36,1-4.2-2.06-5.39-4.73-7.12-7-4.5-9.34-14-4.8-21,3.15-4.87,3.06-9.21.16-14a38.89,38.89,0,0,1-4.37-11.62c-1.91-8.24,1.66-15.1,9.77-17.61,4.72-1.47,8.65-3.46,12.09-7.17,4-4.28,9.56-4.42,14.94-3.5,3.69.62,6.91.45,9.71-2.27a7.56,7.56,0,0,1,2.13-1.3c3.51-1.6,8.38-3.85,10.69-1.46,2,2.1-2.53,5.4-4.51,7.86-9.21,11.5-9.66,22-.2,33.37,8.72,10.47,18.13,20.38,27.28,30.48a118.41,118.41,0,0,1,8.65,11.57c1.37,1.94,2.87,5.33,5.5,3.62,2.36-1.53.42-4.62-.74-6.76-4.55-8.4-10.82-15.53-17.13-22.59-4.5-5-4.59-4.84,0-9.74,7.58-8.11,16-14.59,27.72-15,2.24-.08,2.7-1.35,2.8-3.25C711.26,174.34,711.6,170,712,164.62Z"/><path class="cls-1" d="M779.27,321.64c-8.91-9.2-17.73-18.48-26.78-27.54-2.46-2.45-3.2-4.42-.71-7.12.66-.72,1-1.78,1.61-2.5,1.78-2,1.77-6,5.14-6,3.54,0,8.11,5.82,8.58,9.84.23,2,.83,4,.64,5.93-.53,5.52,2.19,6.31,6.8,5.45,6.69-1.26,13.32-3,20.16-3.26,2.8-.12,2.2-1.76,1.8-3.44-1.45-6-3.33-12-7-17a126.2,126.2,0,0,0-27.82-27.69c-6.73-4.92-11.23-4.37-17.49,1-2.76,2.39-5.4,6.63-8.25,6.77-3.49.16-2.78-5.86-5.54-8.28-1.4-1.24-2.13-3.25-3.88-6.07,8.69,3,14.83.64,20.21-5a14,14,0,0,0,3.75-13.71,137.37,137.37,0,0,0-15.19-38.88c-.73-1.27-1.89-2.37-1.85-4.65,4.57.57,8.63,2.48,12.45,4.46,37.54,19.47,60.48,49.51,66.29,91.93a293.57,293.57,0,0,1,2.42,42.83c0,3.94,1.42,6,4.62,8.37,19.16,14.24,39.71,27,53.36,47.44a94.43,94.43,0,0,1,5.06,9.14c.93,1.79.73,2.8-1.72,3.4-35.21,8.67-70.77,13.45-107.18,12.33-35.48-1.09-70-7.52-104.49-15.13-5.6-1.24-6.82-3.41-7-8.71-.56-12.73,2.49-24.36,8.34-35.49,2.7-5.15,5.68-10.2,7.28-15.84.65-2.28,1.92-3.11,4.16-3.46,10-1.56,20-3.28,30-5,2.12-.37,4.83-.22,6.22-1.47,5.91-5.27,10.62-2.28,16.07,1,7.74,4.61,15.49,9.07,21.86,15.55,7,7.13,15.46,12,24.44,16.11,2.72,1.24,4.88,2.75,5.63,5.83.61,2.51,2.28,3.31,4.85,3.1,8.66-.7,17.06-2.76,25.53-4.48,3-.61,2.15-1.85.71-3.25a100.72,100.72,0,0,0-14.54-11.32c-5.5-3.71-11-7.37-15.71-12.12.08-4.78,3.84-3.38,6.08-3.09,6,.79,12,.65,18,.65,1.87,0,3.79-.09,3.81-2.78,0-3.37-1.8-3.8-4.61-3.09-7.74,1.94-15.45,4-23.29,5.48C781,322.12,780.11,322.51,779.27,321.64Z"/><path class="cls-1" d="M625.41,865c-8-.21-15.61-.82-23.22-1.62-23-2.42-40.05-15.81-56.34-30.6-1.51-1.37-1.71-3.11-2-4.93-3.81-23-17.89-37-40.91-40.73-4.53-.73-10.32-7.35-11.4-11.7-3.83-15.44-6.87-31.33-19.42-42.83-2.87-2.64-1.25-3.72,1.43-3.84,7.16-.3,13.18-3.33,19.64-6.12,5.54-2.39,12.55-2.2,18.81-3.75,1.93-.48,4.2-.3,5.8-1.28,5.37-3.3,9.79-1.42,14.66,1.38C560.2,735,586.73,752.4,609.39,775.4c13.46,13.67,26.25,27.78,36.27,44.15,6.57,10.74,10.85,22.37,11.2,35.24.12,4.57-1.37,7-6,8C642.32,864.6,633.71,864.87,625.41,865Z"/><path class="cls-1" d="M790.23,833.13c-3.54.09-8.05-.9-12.54-2.25-6.83-2.06-10.88-6.17-13.71-13-12.32-29.9-27.53-58-53.88-78.29a98.7,98.7,0,0,0-34.58-17.22c-1.6-.44-3.11-1.23-4.71-1.59-3.25-.72-3.16-2.35-2.11-5.07,4.23-10.91,4.15-11,15.24-7.95,14.54,4,28.3,9.82,40.71,18.36a31.66,31.66,0,0,0,20.53,6,83.7,83.7,0,0,1,21.36,1.18c19.47,3.93,30.6,16.94,37.45,34.48,6.06,15.51,7.88,31.9,9.18,48.32.63,7.89-2.66,12.37-10,15.38C799.36,832.94,795.4,833.15,790.23,833.13Z"/><path class="cls-1" d="M594.59,367.76c-.71-4.91-2.53-8.61-4.26-12.35-12.21-26.45-.15-63.08,25.13-76.39,13.67-7.2,33.68-4.53,44.84,5.84,8.51,7.92,10.64,17.64,8.53,28.68A60.06,60.06,0,0,1,662,331.15a98.65,98.65,0,0,0-12.3,44.29c-.06,1.42.94,3.91-1.58,4a4.08,4.08,0,0,1-4.37-4c-.19-6.68-3.29-11.73-8.31-15.78-2.51-2-.08-3.4.73-4.53,7.61-10.55,10.71-22.44,10.47-35.23-.16-8.72-3.71-15.92-11.65-20.14-11.51-6.12-24.92.25-30.45,13.82-6.31,15.47-4.82,30.24,3.19,44.6.94,1.7,2.08,2.89.22,5.15-8.76,10.66-4.69,26.64,8.28,31.13,7.09,2.46,12.48,7.61,19.31,10.26a1.88,1.88,0,0,1,1.37,2.26c-1,8.9-11.08,18.72-20.24,19.55-8,.72-12.48-1.85-16-9-3.73-7.55-4.93-15.85-7.07-23.86a69.94,69.94,0,0,0-5-14.07c-4.92-9.59-16-11.58-22.27-4.43a11.83,11.83,0,0,1-1.91,1.6c-.91.69-1.85,1.67-3.09,1.09s-.6-2.05-.76-3.13a2.85,2.85,0,0,1,0-.5c.8-15.79,6.55-19.12,20.76-12.25C585.44,363.92,589.32,366.6,594.59,367.76Z"/><path class="cls-1" d="M732.4,804.93c3.65,0,7.36.37,11-.08,5.57-.7,8.6,1.9,10.94,6.56,2.25,4.48,3.73,9.24,5.78,13.77,1.81,4,.37,5.9-3.36,7.5a327.37,327.37,0,0,1-48.65,16.21,369.54,369.54,0,0,1-38.08,7.6c-3.82.54-6,.27-6.17-4.61-.3-10-3.71-19.21-8.13-28-1.61-3.22-1.7-4.49,2.41-5.66,16.47-4.66,32.89-9.37,49.93-11.57C716.12,805.57,724.25,805.25,732.4,804.93Z"/><path class="cls-1" d="M620.05,774.89c33-9.19,66.72-9.21,100.48-8.62,6.22.11,10.71,2.65,13.76,8.19,3.44,6.26,7.27,12.3,10.93,18.44,1.89,3.16,1,4.21-2.64,4.16a260.24,260.24,0,0,0-61.91,6.18c-8.74,2-17.31,4.73-25.93,7.24-3.85,1.12-6.16.92-8.65-3.39-6.09-10.56-15.32-18.75-23.26-27.92C621.68,777.83,620,776.76,620.05,774.89Z"/><path class="cls-1" d="M756.59,418.87c-33.6.2-66.73-3.16-98.94-13.25-7.45-2.34-14.88-4.82-21.59-9-2.48-1.53-4.09-3.27,0-5a.88.88,0,0,0,.41-.28c4.23-8,10.56-4.83,16.65-3.19,44.66,12.08,90,19.36,136.37,19.44,33.08.06,65.27-4.67,96.17-17,3-1.2,3.68-2.17,1.81-4.86-.69-1-1.91-2.41-1-3.61s2.81-.71,4.2-.49c2.77.45,5.61.77,8.14,2.19,2.92,1.64,5.13,3.92,5.24,7.37s-2.67,4.86-5.15,6.14c-7.89,4.08-16.46,6.33-25,8.29A538.91,538.91,0,0,1,756.59,418.87Z"/><path class="cls-1" d="M545,449.3c3.36,5.11,3.72,10.83,3.49,16.67,0,1-.12,2-1.2,2.52-6.31,3.13-11.24,8.2-17,12.1-2.34,1.58-3.64,1.51-5-1.17-2.66-5.33-7.22-7.51-13.1-7.24-5,.23-10,.54-15,.5-7.68-.06-11.22-3.57-11.66-11.21a54.31,54.31,0,0,1,.5-9.94c1.45-11.44,6.77-22.25,4.87-34.92,4.6,3,4.8,7,5.18,10.61.34,3.22.8,4.84,4.56,3.56,1.76-.6,3.9-.11,7.3-.11-2.93,1.88-4.79,3-6.61,4.26-5.48,3.67-8.06,8.73-7.1,15.34,1.29,8.88,10.43,13.46,19.09,9.54,3-1.36,5.85-3.17,8.88-4.52,4-1.76,7.89-2.13,11.9.27,6.77,4.06,7.1,3.87,9.32-3.66A4.35,4.35,0,0,1,545,449.3Z"/><path class="cls-1" d="M608.28,329.64c.09-9.5,1.65-18.37,11.11-23.36,8.55-4.51,15.45-1.57,18.1,7.74,4.2,14.78-.59,27.8-8.17,40.23a3.12,3.12,0,0,1-3.29,1.66c-1.81-.16-3.88-.67-5.43,0-6,2.41-7.22-1.22-8.56-5.72C610.05,343.43,608.22,336.73,608.28,329.64Z"/><path class="cls-1" d="M436.72,722.33a28.68,28.68,0,0,1-1,5c-5.8,16-9.61,33.09-24.69,43.87-.82.58-3.05,1.05-1.05,3.28,6.87,7.65,6.09,18.36-1.61,25.29a30.43,30.43,0,0,1-7.93,5.12c-3.39,1.52-4.25,3.49-1.33,6.33,2.22,2.15,3.33,4.95,4.19,7.82.57,1.88.41,3.83-1.67,4.66s-3.58-.49-4.18-2.4c-1.25-3.93-3.89-6.9-6.42-10-2.37-2.88-2.58-5.56.7-8.12a56.82,56.82,0,0,1,9.51-6.34,12.87,12.87,0,0,0,6.92-14.17c-.69-3.56-6.81-6.76-10.45-5.08-7.54,3.47-15.25,6.64-22.05,11.54a7.37,7.37,0,0,0-3,4.32,33.92,33.92,0,0,1-9.95,15.81c-1.55,1.44-3.33,2.73-5.2.87s-1.19-4.06.73-5.58c4.27-3.38,6-8.23,7.84-13a15,15,0,0,1,9.45-9.47c12.18-4.47,23.89-9.93,34.16-18.06a30.9,30.9,0,0,0,9.87-12.89c3.88-9.67,9.34-18.77,10.78-29.35.28-2.08,1.18-4.09,3.69-3.89C436.37,718,436.84,719.9,436.72,722.33Z"/><path class="cls-1" d="M738.44,459.77c-.18-4.64,1.73-8.45,4.54-11.89,1.18-1.44,2.78-2,4.4-.88a2.93,2.93,0,0,1,.91,4c-8,12.89.59,21.56,7.74,30.47,4.84,6,11.45,10.08,17.63,14.58a216.66,216.66,0,0,1,23.91,20.33,32.81,32.81,0,0,1,9.28,16.8c.38,1.72.11,3.41-1.77,4.19a2.76,2.76,0,0,1-4-1.87c-3.15-13.55-14.5-20.25-23.83-28.54-8.29-7.38-18.41-12.54-25.91-21C744.6,478.45,739.13,470.29,738.44,459.77Z"/><path class="cls-1" d="M623,362.86c8.24,0,13.4,4.84,13.37,12.66s-5.69,13.93-13.07,14c-7.15.07-12.83-6.27-12.79-14.27C610.51,367.75,615.4,362.9,623,362.86Z"/><path class="cls-1" d="M552.52,635.43c-1.43,8.56-6.13,16.61-11.33,24.28-7.5,11.06-18.76,17.56-30.31,23.52-2.29,1.18-5.17,1.66-6.58-1.11-1.68-3.32,1.45-3.92,3.59-5.19,16.31-9.71,31.6-20.43,37-40.22a16.24,16.24,0,0,0,.67-2.88c.22-2.42.44-5,3.64-4.86C552.72,629.14,552.47,632,552.52,635.43Z"/><path class="cls-1" d="M399.1,896.58c1.1-15.4,4.87-28.69,12.75-40.65,1.17-1.76,2.71-3.35,4.88-1.56s1.09,3.59-.25,5.26c-8.24,10.23-11.35,22.4-10.67,35a51.16,51.16,0,0,0,11,28.43c1.49,1.93,3.26,3.85.92,6-2.57,2.41-4.25,0-5.68-1.75C404.36,918.05,401.61,906.76,399.1,896.58Z"/><path class="cls-1" d="M770.51,442.59c16.41-1.83,32.49-4.25,48.19-8.86.75-.21,1.93-1.23,2.35.45.39,1.53-.87,1.58-1.79,1.68-4.2.48-5.13,2.92-4.91,6.84.28,5.07-3.61,10.15.07,15.35.43.61-1.08,1.6-2.16,1.27C797.9,454.93,783.26,451.23,770.51,442.59Z"/><path class="cls-1" d="M628.89,491.18c-.32-3.51-.66-5.93-.75-8.35-.2-5.88,4.43-12.14,10-13.78,1.17-.34,2.33-.73,3.09.54,1,1.59-.52,1.9-1.47,2.47-9.38,5.64-11,11.1-6.31,21.15,1.23,2.62,2.62,5.16,4.5,8.84-14.42-7.09-22.86-17.32-25.42-32-1.09-6.23,6-17.62,11.83-20.14,1.55-.66,2.92-.61,4.07.69,1.39,1.57,0,2.51-1,3.2C612.21,464.15,617.71,479.56,628.89,491.18Z"/><path class="cls-1" d="M680.43,461.18c-2.13.23-3.41-.41-3.91-2.07s.51-2.9,1.87-3.65a23.69,23.69,0,0,1,3.27-1.1c13.11-4.73,25.4-10.6,33.08-23.14a24.08,24.08,0,0,1,4.6-5.18,3,3,0,0,1,4.47.14c1.25,1.3.91,2.73,0,4.09-9.83,15.26-23.65,25.17-40.92,30.43A21,21,0,0,1,680.43,461.18Z"/><path class="cls-1" d="M615.88,648.79c-.37,18.76-8.64,31-23.62,39.07-1.48.79-3.3,1.69-4.41-.19s.69-3,2-4c2.65-2,5.27-4,8.07-5.78,13.39-8.42,14.86-27.53,8.13-39-1.1-1.87-2.28-3.77-.14-5.19,2.34-1.55,4.35-.24,5.85,2A27.61,27.61,0,0,1,615.88,648.79Z"/><path class="cls-1" d="M642.3,438.08a61,61,0,0,1-4.26-5.19c-1.5-2.34-6.15-1.82-5.8-4.85.26-2.19,3.3-4,4.79-6.13,1.79-2.58,3.15-5.45,4.87-8.07,1-1.54,1.19-4.53,3.76-3.95,3.82.86,7.74,1.77,11.1,4,.82.54.12,1.57-.25,2.26a115,115,0,0,1-13,19.33A14.12,14.12,0,0,0,642.3,438.08Z"/><path class="cls-1" d="M832.5,557.5c4.12,1.76,7.42,2.71,9.22,5.76.89,1.51,1.36,3.13-.24,4.49-1.08.92-2.47,1.34-3.63.26-5.92-5.5-13.7-5.41-20.9-7-2.51-.55-5.42-.58-5.33-3.89s3.09-3.23,5.57-3.73c7.08-1.45,14.61-1.16,20.92-5.71,1.79-1.28,4.36-1.56,5.52,1.09s-.8,4.1-2.74,5.13C838.57,555.13,836.07,556,832.5,557.5Z"/><path class="cls-1" d="M428.64,769.17a7.25,7.25,0,0,1,.37-2A55.68,55.68,0,0,1,450.85,744c1.75-1,3.71-.78,4.62,1.35s-.24,3.42-2,4.48c-6.21,3.76-11.13,8.91-15.42,14.69-1.25,1.69-2.85,3.24-2.67,5.71s-.85,4.06-3.43,3.75S428.75,771.46,428.64,769.17Z"/><path class="cls-1" d="M850.18,511c-12,3.8-14.54,3.42-16.65-2.35-1.32-3.62,1.72-8.92,6.29-10.78.53,2.27-1.49,3.53-2.17,5.25-1.48,3.72-.09,5.31,3.34,5.9a47.26,47.26,0,0,0,4.92.35C847.36,509.41,848.9,509.2,850.18,511Z"/><path class="cls-1" d="M659.1,721.15a2.55,2.55,0,0,1-1.67,2.35c-3.68,1.44-7.36,2.88-11,4.27a2.27,2.27,0,0,1-2.71-.65,2.35,2.35,0,0,1,0-2.77c1.32-2.39,9.27-6.42,12.08-6.09A3.49,3.49,0,0,1,659.1,721.15Z"/><path class="cls-1" d="M726.52,239.28c-.31.75-.37,1.33-.69,1.57a1.28,1.28,0,0,1-1.75-.3A35.83,35.83,0,0,1,715.41,228c-.56-1.46.06-2.31,1.69-1.81a6.4,6.4,0,0,1,2.58,1.36C723,230.92,722.48,236.43,726.52,239.28Z"/><path d="M779.27,321.64c9.56-2.46,19.15-4.85,28.68-7.46,2.46-.67,2.93.38,3.12,2.33a22.37,22.37,0,0,0,.53,3.94c.85,3-.43,3.87-3.25,3.71-7.3-.43-14.59-.81-21.89-1-1.55-.05-3.83-1.26-4.39,1.64A5.26,5.26,0,0,1,779.27,321.64Z"/><path d="M646.06,553.12c4.3,3.4,8.21,6.39,12,9.56.6.51.63,1.83.7,2.79,1.43,20.14.91,40.14-4.43,59.77-.54,2-1.45,3.91-2.3,6.13C644.17,619.71,641.14,579.42,646.06,553.12Z"/><path d="M651.79,533.24c3.24,6.57,4.35,13,5.29,19.82C646.76,547.2,645.79,543.7,651.79,533.24Z"/><path d="M784.49,444.55c7.87-1.5,14.77-2.85,21.68-4.1,1.36-.25,2.06.24,1.67,2a18.76,18.76,0,0,0-.62,6.38c.59,4.56-1.07,5.64-5.1,4C796.45,450.39,790.23,449.14,784.49,444.55Z"/><path class="cls-2" d="M468.88,193.6c4.48-7.23,11.53-11.87,17.88-17.08,25.51-20.9,54.36-35.51,86-44.67,36.74-10.63,74.08-13.79,112-8.39,9.51,1.35,18.91,3.53,28.33,5.51,5.83,1.22,6.3,2.81,3,7.66-2.7,4-5.81,7.75-6.09,12.88-.13,2.27-1.59,3.18-3.7,3.16-17.33-.09-30.57,8.74-42.9,19.6-1,.85-2,1.59-3.52,2.74-1.55-7,1.35-12,5.38-16.47,2.66-2.93,5.92-5.31,9-7.9,2.28-1.95,2.61-3.52-.3-5.38-8.17-5.22-16.39-6.82-25.14-1.34a14.2,14.2,0,0,1-9.51,2.17c-7.57-.88-14.41.47-20,6.37-2.76,2.91-6.8,4.11-10.62,5.3a19.13,19.13,0,0,0-11.94,9.87,7.19,7.19,0,0,1-6.23,4.23c-36.94,3.73-70.38,17.11-101.59,36.67-5.41-3.76-10.68-7.73-16.47-10.93A6.54,6.54,0,0,1,468.88,193.6Z"/><path class="cls-3" d="M425.77,398.29c6.81,18.84,9.93,36.4,16.43,55.34,6,17.38,12.22,34.69,17.46,52.29,4.81,16.17,9.35,32.44,13.1,48.93,4.83,21.28,8.09,42.7,8.7,64.52.06,2.21.53,4.07,3.26,4,3.1-.09,3.37,2,2.64,4a32,32,0,0,1-16.61,18.19c-3.22,1.58-4.29-.06-4.15-3,.22-4.64.86-9.28.77-13.92-.55-25.89-1.73-51.62-8.25-77-7.37-28.72-18.51-55.94-29.75-83.22a427.67,427.67,0,0,1-19.9-62.95Z"/><path class="cls-4" d="M408.32,399.6c-10.47-46.64-5.05-92.1,13.66-136a232.21,232.21,0,0,1,42.09-65.72,61.17,61.17,0,0,1,4.8-4.27c5.63,3.75,11.23,7.53,16.89,11.23A48.43,48.43,0,0,1,489.7,208c-5.27,4.22-11.61,8.72-16.62,13.24-28.36,25.55-46.38,57-53.33,94.63-4.35,23.55-.52,46.79,3.51,70,.59,3.42,1.93,9,2.51,12.43-6.87,2.85-12.5,5.78-16.3,7.12Z"/></g></svg>